<svg xmlns="http://www.w3.org/2000/svg" width="420" height="68" viewBox="0 0 420 68">
  <defs>
    <linearGradient id="bg" x1="0" y1="0" x2="1" y2="0">
      <stop offset="0%" stop-color="#0057a8"/>
      <stop offset="100%" stop-color="#0078d4"/>
    </linearGradient>
  </defs>

  <!-- Background -->
  <rect width="420" height="68" rx="12" fill="url(#bg)"/>

  <!-- Windows logo (SimpleIcons path, viewBox 0 0 24 24, scaled ×2.1, centered at x=46 y=34) -->
  <g transform="translate(19 6.5) scale(2.15)">
    <path fill="white" d="M0 3.449L9.75 2.1v9.451H0m10.949-9.602L24 0v11.4H10.949M0 12.6h9.75v9.451L0 20.699M10.949 12.6H24V24l-12.9-1.801"/>
  </g>

  <!-- Divider -->
  <line x1="80" y1="14" x2="80" y2="54" stroke="rgba(255,255,255,0.15)" stroke-width="1"/>

  <!-- "DOWNLOAD FOR" label -->
  <text x="200" y="26" font-family="-apple-system, BlinkMacSystemFont, 'Segoe UI', sans-serif" font-size="11" font-weight="500" fill="rgba(255,255,255,0.55)" text-anchor="middle" letter-spacing="1.5">DOWNLOAD FOR</text>

  <!-- Platform name -->
  <text x="200" y="50" font-family="-apple-system, BlinkMacSystemFont, 'Segoe UI', sans-serif" font-size="22" font-weight="700" fill="white" text-anchor="middle" letter-spacing="-0.3">Windows</text>

  <!-- Format pill -->
  <rect x="322" y="20" width="52" height="26" rx="6" fill="rgba(255,255,255,0.12)"/>
  <text x="348" y="37" font-family="'SF Mono','Fira Code',monospace" font-size="12" font-weight="600" fill="rgba(255,255,255,0.75)" text-anchor="middle">.exe</text>

  <!-- Download arrow -->
  <g transform="translate(393 23)">
    <path fill="rgba(255,255,255,0.8)" d="M11 4a1 1 0 0 0-2 0v8.586L6.707 10.293a1 1 0 1 0-1.414 1.414l4 4a1 1 0 0 0 1.414 0l4-4a1 1 0 0 0-1.414-1.414L11 12.586V4zM4 18a1 1 0 0 0 0 2h12a1 1 0 0 0 0-2H4z"/>
  </g>
</svg>
