<svg xmlns="http://www.w3.org/2000/svg" width="420" height="68" viewBox="0 0 420 68">
  <defs>
    <linearGradient id="bg" x1="0" y1="0" x2="1" y2="0">
      <stop offset="0%" stop-color="#232323"/>
      <stop offset="100%" stop-color="#333333"/>
    </linearGradient>
  </defs>

  <!-- Background -->
  <rect width="420" height="68" rx="12" fill="url(#bg)"/>

  <!-- Linux / Tux penguin (SimpleIcons path, viewBox 0 0 24 24, scaled ×2.1) -->
  <g transform="translate(19 3) scale(2.1)">
    <path fill="#FCC624" d="M12.504 0c-.155 0-.315.008-.48.021-4.226.333-3.105 4.807-3.17 6.298-.076 1.092-.3 1.953-1.05 3.02-.885 1.09-2.206 2.317-2.053 4.319.07.963.295 1.rise 1.058 1.99C6.2 16 6.476 16.48 6.976 16.96c.5.48.962.832 1.388 1.095.425.263.85.443 1.25.582.4.14.787.235 1.14.284.355.05.69.065.982.05-.05.076-.098.152-.14.235.06.138.084.284.063.425-.02.14-.084.273-.175.385-.092.11-.205.2-.34.255-.135.055-.285.08-.45.07-.09 0-.177-.012-.25-.036-.073-.024-.142-.06-.2-.106-.08.064-.148.128-.202.203-.05.07-.088.147-.1.23-.01.08-.007.162.006.245.015.08.04.16.076.24.036.08.082.155.14.22.058.067.122.126.19.172.07.046.144.08.22.1.08.018.16.02.242.01.11.042.22.063.33.063.088 0 .177-.016.262-.05.085-.036.162-.087.23-.155.07-.066.126-.148.164-.24.037-.09.053-.187.05-.286.055-.085.107-.175.153-.27.046-.093.086-.19.12-.29.033-.1.063-.2.088-.3.025-.1.044-.198.06-.296.07.023.14.04.21.052.07.012.14.02.21.02.07 0 .14-.007.21-.02.07-.012.14-.03.21-.053.015.098.034.197.06.295.024.1.053.2.087.3.034.098.073.195.12.29.046.093.1.183.153.268-.004.1.012.196.05.286.037.092.092.174.162.24.07.068.145.12.23.155.085.033.174.05.262.05.11 0 .22-.022.33-.064.08.01.162.008.242-.01.076-.018.15-.053.22-.1.07-.046.133-.105.19-.172.058-.066.104-.14.14-.22.037-.08.063-.16.078-.24.014-.083.017-.165.006-.245-.012-.083-.05-.16-.1-.23-.053-.075-.12-.14-.202-.203-.058.046-.127.082-.2.106-.073.024-.16.036-.25.036-.165.01-.315-.015-.45-.07-.135-.055-.248-.145-.34-.255-.09-.112-.154-.246-.175-.386-.02-.14.003-.287.063-.424-.043-.083-.09-.16-.14-.235.293.015.627 0 .982-.05.353-.05.74-.144 1.14-.284.4-.14.825-.32 1.25-.582.426-.263.888-.615 1.388-1.095.5-.48.775-.96.785-1.365.153-2.002-1.168-3.23-2.053-4.32-.75-1.066-.974-1.927-1.05-3.018C15.61 4.807 16.73.334 12.504 0zm-.5 4.07c.08 0 .163.004.25.013.25.026.47.1.653.22.18.12.32.28.4.468.078.19.1.4.063.61-.037.21-.13.41-.273.577-.144.167-.328.3-.54.386-.213.086-.447.124-.69.113-.242-.013-.466-.07-.665-.175-.2-.104-.364-.252-.48-.432-.118-.18-.18-.387-.18-.604 0-.307.12-.582.33-.786.21-.204.49-.318.8-.33.04-.002.08-.003.12-.003zm-2.02 1.04c.175 0 .347.04.5.12.153.08.284.192.38.33.097.135.16.29.183.453.023.163.007.33-.047.484-.054.154-.144.293-.264.403-.12.11-.265.19-.423.236-.16.045-.328.052-.492.022-.163-.032-.316-.104-.444-.21-.127-.107-.226-.248-.285-.408-.06-.16-.077-.334-.05-.504.027-.17.097-.33.2-.463.105-.133.24-.237.395-.3.154-.065.322-.088.488-.075.027.002.053.004.08.006zm1.02 2.22c.44 0 .87.1 1.26.295.39.196.73.48.99.83.26.353.43.764.498 1.2.068.438.035.89-.097 1.317-.13.427-.36.826-.668 1.16-.308.333-.686.6-1.113.783-.426.183-.888.283-1.358.292-.47.01-.937-.07-1.37-.24-.432-.17-.822-.42-1.14-.74-.32-.322-.563-.71-.71-1.13-.147-.42-.196-.864-.145-1.3.052-.437.204-.856.445-1.22.24-.36.56-.66.93-.878.37-.218.784-.35 1.208-.388.087-.008.175-.012.26-.012zM12 14c1.105 0 2 .895 2 2s-.895 2-2 2-2-.895-2-2 .895-2 2-2z"/>
  </g>

  <!-- Divider -->
  <line x1="80" y1="14" x2="80" y2="54" stroke="rgba(255,255,255,0.12)" stroke-width="1"/>

  <!-- "DOWNLOAD FOR" label -->
  <text x="200" y="26" font-family="-apple-system, BlinkMacSystemFont, 'Segoe UI', sans-serif" font-size="11" font-weight="500" fill="rgba(255,255,255,0.45)" text-anchor="middle" letter-spacing="1.5">DOWNLOAD FOR</text>

  <!-- Platform name -->
  <text x="200" y="50" font-family="-apple-system, BlinkMacSystemFont, 'Segoe UI', sans-serif" font-size="22" font-weight="700" fill="white" text-anchor="middle" letter-spacing="-0.3">Linux</text>

  <!-- Format pill -->
  <rect x="296" y="20" width="82" height="26" rx="6" fill="rgba(255,255,255,0.09)"/>
  <text x="337" y="37" font-family="'SF Mono','Fira Code',monospace" font-size="12" font-weight="600" fill="rgba(255,255,255,0.6)" text-anchor="middle">.AppImage</text>

  <!-- Download arrow -->
  <g transform="translate(393 23)">
    <path fill="rgba(255,255,255,0.75)" d="M11 4a1 1 0 0 0-2 0v8.586L6.707 10.293a1 1 0 1 0-1.414 1.414l4 4a1 1 0 0 0 1.414 0l4-4a1 1 0 0 0-1.414-1.414L11 12.586V4zM4 18a1 1 0 0 0 0 2h12a1 1 0 0 0 0-2H4z"/>
  </g>
</svg>
