<?xml version="1.0" encoding="UTF-8"?>
<svg id="tigertag_head" xmlns="http://www.w3.org/2000/svg" version="1.1" viewBox="0 47 1000 567">
  <g fill="#010101">
    <path d="M437.8,184.7c.3-.1.6-.2.9-.3l48.8-13.3c1.3-.4,2.7-.4,4,0l48.9,13.3c.3,0,.6.2.9.3,2.5,1,13.4,6.5,15,5.3.4-.3-9.5-12.5-26.6-19.7-1.4-.6-7.2-3.3-8.9-3.9-10.9-3.5-21.1-7.5-28.3-10.5-1.9-.8-4-.8-5.8,0-7.2,3-17.4,7-28.3,10.5-1.6.5-7.4,3.3-8.9,3.9-17.1,7.2-27,19.4-26.6,19.7,1.6,1.2,12.5-4.3,15-5.3Z" fill="#010101"/>
    <path d="M412.9,224c-.4,1.8,28.5-11.5,28.8-11.6l47.9-14.5,47.9,14.5c.3,0,29.2,13.4,28.8,11.6-.7-3-13.4-9-27.2-24.1-3.7-4-16.7-6.7-18.3-7.2-11.8-3.8-22.8-6-30-8.9-.8-.3-1.6-.3-2.4,0-7.2,2.8-18.2,5.1-30,8.9-1.6.5-14.6,3.2-18.3,7.2-13.8,15-26.5,21.1-27.2,24.1Z" fill="#010101"/>
    <path d="M551.5,250.4c.4-1.1,0-2.3-1.1-5.6-1.2-3.3-4.3-8.4-4.3-8.4-4.5-6.2-10.3-8.6-17.9-11.7l-35.9-13.7c-.3-.2-2.9-1.1-2.9-1.1,0,0-2.5.9-2.9,1.1l-35.9,13.7c-7.5,3.1-13.4,5.4-17.8,11.7,0,0-3.2,5.1-4.4,8.4-1.2,3.3-1.5,4.5-1.1,5.6.4,1.1,2-.2,7.4-3.9,5.3-4.2,16-7.7,22.3-10.4,5.5-2.4,18-8.3,27.6-9.9,1.8-.3,3.2,1.2,2.6,2.8l-1.2,4.9c-.3.7-.6,1.4-1,2.1l-.3.5c-2.6,4.7-5.8,9.5-4.8,14.7l7.8,30.3s.6,1.6,1.6,1.6,1.6-1.6,1.6-1.6l7.8-30.3c1-5.2-2.2-9.9-4.8-14.7l-.3-.5c-.4-.7-.7-1.4-1-2.1l-1.2-4.9c-.6-1.5.8-3,2.6-2.8,9.6,1.6,22.1,7.5,27.6,9.9,6.3,2.7,17,6.2,22.3,10.4,5.4,3.7,7,5,7.4,3.9Z" fill="#010101"/>
    <path d="M860.3,258.1c2.5,0,4.9-1,6.6-2.8,1.8-1.8,2.7-4.2,2.7-6.7,0-5.2-4.3-9.3-9.4-9.3h0c-5.2,0-9.4,4.3-9.3,9.5,0,5.2,4.4,9.4,9.5,9.3Z" fill="#010101"/>
    <path d="M571.4,201.2c-.9-.6-1.8-1.2-2.7-1.8,8,13.2,22.8,40.6,20.9,54.5-1.1,3.7-8.7,5.9-21.2,9.6-6.6,1.9-14.4,3.3-23.7,9.2-19,12.1-18.4,24.2-19.8,31.7-.5,2.7-.6,5.5-.2,8.3l2.6,21.9c.1,1,.3,2,.5,3l5,34c.3,1.9,1.1,14,.9,15.9l-1.7,5.5c-1.4,10.1-12.6-.3-12.7-.4-7.2-3.5-15,.4-15,.4,0,0-7.2,5.2-14.7,5.2h-.2c-7.5,0-14.7-5.2-14.7-5.2,0,0-7.8-3.9-15-.4,0,0-11.2,10.4-12.7.4l-1.7-5.5c-.2-1.9.6-14,.9-15.9l5-34c.2-1,.4-2,.5-3l2.6-21.9c.3-2.8.2-5.5-.2-8.3-1.3-7.4-.8-19.6-19.8-31.7-9.3-5.9-17.1-7.2-23.7-9.2-12.5-3.7-20-5.8-21.2-9.6-1.9-13.9,12.9-41.4,20.9-54.5-.9.6-1.8,1.2-2.7,1.8-45.6,30.5-75.7,62.7-92,98.6-25.7,56.4-43.8,102.5-55,140,10.8,1.4,19.4,3.1,26.8,5.2,11.8,3.3,22.1,10.7,28.8,20.7,13.4,20,24.4,32.5,37.8,43.2,67.4,53.4,119.2,65.4,135.5,68,16.3-2.6,68.1-14.6,135.5-68,13.5-10.7,24.4-23.2,37.8-43.2,6.7-10,17-17.4,28.8-20.7,7.3-2.1,16-3.7,26.8-5.2-11.2-37.5-29.3-83.6-55-140-16.3-35.9-46.4-68.1-92-98.6ZM553.8,285.1c3.2-2.5,11.1-5.3,14.2-6.3,0,0,10.2-3.1,13.3-3.3-1.2,3.9-5.3,12.5-5.3,12.5-4,8.5-10.6,8.8-17.6,8.1,0,0-6-2.5-11.4-2.1-4.1,1.5,6.7-8.8,6.8-9ZM411.1,278.8c3.1,1,11,3.7,14.2,6.3.2.2,10.9,10.4,6.8,9-5.5-.4-11.4,2.1-11.4,2.1-6.9.8-13.6.4-17.6-8.1,0,0-4.2-8.7-5.3-12.5,3.1.2,13.3,3.3,13.3,3.3ZM412,528.9s-25.7-18.8-32.2-33.3c-9.9-21.9-20.6-29-20.6-29-.1-.2-.4,0-.3.2,2.2,6.2,5.8,35.6,5.8,35.6,0,.2-.2.4-.4.2,0,0-26.4-36.2-44.8-54.9-16.8-17-20.9-35.5-8.4-71.9l28.1-79c.2-.5,1-.4.9.2l-3.1,42.9c-.1,1.4-.1,2.9,0,4.3l.4,41c1,13.2,4.1,31.3,12.8,49.4,4.4,11.2,10.6,21.1,10.6,21.1,0,.1.3,0,.2,0l-1.4-15.7c-1.8-12.6-1.1-25.4,2.2-37.8l.6-2.1c.2-.8,1.5-4.9,2.2-4.9.6,0,.3,2.6.9,4.8l21.1,70.9c1.5,5,3.4,9.8,5.8,14.5l21.7,42.1c.7,1.3-1.1,2.4-2.1,1.4ZM415.6,465c-4.8-6.9-20.3-23.3-20.5-24-.2-.6,31.9,3.1,41.9,3.7.6,0,1.5-.9,1-1.1-6.8-3-25.7-11.8-37.7-26.3-3.4-4.1-4.6-9.6-3.5-14.7,1.1-5.1,2.4-10,3.4-12.9.6-1.8,9.4-22.9,11.1-25.2,4.7-6.3,9.4-18.3,9.4-18.3,0,0,4.5-11.6,2.8-12.7-1.7-1-4.1,7.8-8.8,9.9-4.7,2.1-21.2,11.9-26.6,16.3-3.6,3-7.4,10.1-8,11.2-.6,1.2-2.1-.2-2.1-.2,0,0-19.6-34.8-22.4-40.3-2.3-4.5-7.8-33.3-6.8-51.1.5-8.6,7-21.3,7-21.3,0,0,16.6-21.8,17.5-21.3l-3.1,16.5c-.8,5.8.3,11,3.4,16l8.1,10.9c.7,1,1.4,2,2,3.1l5.1,11.3c2.3,5.1,5,9.5,10.1,12.3,0,0,1.1.8,3.2,1.8,4,1.8,8.5,2.4,12.9,2l9.5-.8c1.7,0,3.6.9,5.4,2.1,2.9,2,5.1,4.8,6.6,7.9l1.5,3.1c1.2,2.4,1.8,5.1,1.8,7.7v33.8l-1.5,31.4c-.3,4.9,1.3,9.8,4.5,13.7l1.6,2c6,6.5,13.1,6.7,14.9,7,3.3.6,8.9,1.7,11.3,3,3.6,1.9,6.9,5.5,9.4,9.2,2.3,3.5,4,6.2,2.3,15.3-1,5.3-4.3,8.8-11,15.5-4.6,4.5-19.7,10.7-23.1,11.5-7.4,1.8-27.6-1.2-32.4-8ZM552.2,494.1l-11.6,21.4c-1.1,2.2-2.4,4.2-4,6l-16.9,18.8c-.5.5-1.4.2-1.4-.5.3-4.9,1-16.5,1.1-18.7.2-5.2-1.7-9.3-4.2-6.5-2.5,2.8-25.1,42.8-25.7,42.8s-23.3-40-25.7-42.8c-2.5-2.8-4.4,1.3-4.2,6.5,0,2.1.8,13.8,1.1,18.7,0,.7-.9,1.1-1.4.5l-16.9-18.8c-1.6-1.8-3-3.8-4-6l-11.6-21.4c-.3-.6.2-1.3,1-1.2,3.4.8,11.4,2.3,21.1.9,13.2-1.8,29.8-16,39.9-17.1h1.4c10.1,1.1,26.8,15.3,39.9,17.1,9.8,1.3,17.7,0,21.1-.9.7-.2,1.3.5,1,1.2ZM531.1,473c-3.3-.8-18.4-7-23.1-11.5-6.8-6.6-10.1-10.1-11-15.5-1.7-9.1,0-11.8,2.3-15.3,2.5-3.8,5.8-7.4,9.4-9.2,2.5-1.3,8-2.4,11.3-3,1.8-.3,8.9-.5,14.9-7l1.6-2c3.1-3.9,4.7-8.8,4.5-13.7l-1.5-31.4v-33.8c0-2.7.6-5.3,1.8-7.7l1.5-3.1c1.5-3.1,3.7-5.9,6.6-7.9,1.8-1.2,3.6-2.1,5.4-2.1l9.5.8c4.4.4,8.9-.2,12.9-2,2.1-.9,3.2-1.8,3.2-1.8,5.1-2.8,7.8-7.2,10.1-12.3l5.1-11.3c.6-1.1,1.2-2.1,2-3.1l8.1-10.9c3.1-5.1,4.1-10.2,3.4-16l-3.1-16.5c.9-.6,17.5,21.3,17.5,21.3,0,0,6.5,12.6,7,21.3,1,17.8-4.5,46.6-6.8,51.1-2.8,5.5-22.4,40.3-22.4,40.3,0,0-1.5,1.4-2.1.2-.6-1.1-4.3-8.2-8-11.2-5.4-4.4-21.9-14.2-26.6-16.3-4.7-2.1-7.1-10.9-8.8-9.9-1.7,1,2.8,12.7,2.8,12.7,0,0,4.7,12,9.4,18.3,1.7,2.3,10.5,23.4,11.1,25.2,1,2.9,2.3,7.9,3.4,12.9,1.1,5.1,0,10.6-3.5,14.7-12,14.6-30.9,23.4-37.7,26.3-.5.2.4,1.2,1,1.1,10-.6,42.1-4.2,41.9-3.7-.2.7-15.7,17.1-20.5,24-4.8,6.9-25,9.9-32.4,8ZM659.5,447.7c-18.4,18.7-44.8,54.9-44.8,54.9-.2.2-.5,0-.4-.2,0,0,3.6-29.5,5.8-35.6,0-.2-.2-.3-.3-.2,0,0-10.7,7.1-20.6,29-6.5,14.5-32.2,33.3-32.2,33.3-1,1.1-2.8-.1-2.1-1.4l21.7-42.1c2.4-4.7,4.4-9.5,5.8-14.5l21.1-70.9c.6-2.2.3-4.8.9-4.8.7,0,2,4,2.2,4.9l.6,2.1c3.3,12.3,4,25.2,2.2,37.8l-1.4,15.7c0,.1.2.2.2,0,0,0,6.2-10,10.6-21.1,8.7-18.1,11.8-36.2,12.8-49.4l.4-41c0-1.4,0-2.9,0-4.3l-3.1-42.9c0-.5.8-.7.9-.2l28.1,79c12.5,36.4,8.3,54.9-8.4,71.9Z" fill="#010101"/>
    <path d="M839.5,417.4c1.9,1.7,4.3,2.5,6.8,2.3,5.2-.4,9.1-4.9,8.7-10-.3-5-4.5-8.8-9.4-8.8s-.4,0-.6,0c-2.5.2-4.8,1.3-6.4,3.2-1.7,1.9-2.5,4.3-2.3,6.8.2,2.5,1.3,4.8,3.2,6.4Z" fill="#010101"/>
    <path d="M721.6,261c0-21.2-16.9-40-33.6-51.4-4.3,9.2-10.2,18.2-18.2,26.5l-14.6-14.2c36.8-37.9,17.6-96.7,10.5-114.6-15.5-.7-59.6-.5-98.1,22.1l-8.6,5-5.2-8.5c-8.6-13.8-53.8-39-64.3-41.6-10.5,2.6-55.7,27.8-64.3,41.6l-5.2,8.5-8.6-5c-38.7-22.7-82.7-22.9-98.1-22.2-7,17.8-26.2,76.8,10.5,114.6l-14.6,14.2c-8-8.3-13.9-17.2-18.2-26.5-16.7,11.4-33.5,30.2-33.5,51.4v.3c-.9,30,.5,76.8,7,106.8,11.3-28.8,23.3-55.8,32.8-76.7,20.4-44.9,57.3-79,99.2-107,7-4.7,13.6-9.2,19.6-14.1.2-.2.1-.3-.3-.3-2.4,0-14.6,2.9-31.3,7.7-.6.2-1.2.2-1.9.2-2.3,0-4.7-.9-6.1-2.5-11.8-12.9-25.1-18-34.4-18s-6,.6-8.1,1.8c-6.6,3.8-5.2,16.4-4.2,18.3,0,0,0,0,0,0-.4-.6-5.2-9.6-6.2-23.8-.6-11.5,5-15.9,3.7-29.1,8.1,1.4,33.8-1.8,77.6,26.4.7.4,1.8.7,2.7.7s.3,0,.4,0c14.3-1.9,57.6-20.3,80.7-27.1h2c23.1,6.8,66.4,25.2,80.7,27.1.1,0,.3,0,.4,0,.9,0,2-.3,2.7-.7,43.8-28.2,69.4-25.1,77.6-26.4-1.4,13.2,4.2,17.6,3.7,29.1-1,14.2-5.8,23.3-6.2,23.8h0c1-2,2.4-14.5-4.2-18.4-2-1.2-4.8-1.8-8.1-1.8-9.3,0-22.6,5.1-34.4,18-1.4,1.5-3.9,2.5-6.1,2.5s-1.3,0-1.9-.2c-16.8-4.8-28.9-7.7-31.3-7.7s-.5.1-.3.3c6.1,4.9,12.6,9.4,19.6,14.1,41.9,28,78.7,62,99.2,107,9.5,20.8,21.4,47.8,32.7,76.5,2.5-11.3,4.7-27.3,6-50,1.7-29.8.9-56.3.9-56.6v-.3Z" fill="#010101"/>
    <path d="M508.6,245.1c-3.6-1.8-4.9-1.9-4.7-1.4,1.2,4.4,3.1,9.6,4.8,19.7,2.2,13.2,4.2,26,4.9,26.6.9.9,3.7-18.9,10.7-28,2-2.6.6-7-3-9.7l-12.7-7.2Z" fill="#010101"/>
    <path d="M470.2,245.1l-12.7,7.2c-3.6,2.7-5,7.1-3,9.7,7,9.1,9.8,28.9,10.7,28,.7-.6,2.6-13.5,4.9-26.6,1.7-10.1,3.6-15.3,4.8-19.7.1-.5-1.1-.4-4.7,1.4Z" fill="#010101"/>
    <path d="M980.4,288.2s0,0,0,0h-.3s0,0-.1,0l-231,7.2c0-2.6.1-5.3.1-7.9l56.8-.5c5.7,0,11.4-1.4,16.5-3.9l17.9-8.7c5.6,4.4,12.5,6.8,19.8,6.8h.3c8.6,0,16.7-3.5,22.8-9.7,1.7-1.7,3.2-3.7,4.5-5.7l42.7-.4c4.6,0,8.9-1.9,12.1-5.1,3.2-3.3,5-7.6,4.9-12.2-.1-9.4-7.8-17-17.2-17l-42.8.4c-5.9-9.3-16.1-14.9-27.2-14.9h-.3c-8.6,0-16.7,3.5-22.8,9.7-4.2,4.3-7.2,9.8-8.5,15.7l-21.1,10.3c-.6.3-1.2.4-1.8.4l-57.2.5c-3.9-33.9-31.3-56.7-45.9-66.5,8.6-47.7-13.5-94.2-14.4-96.2l-2.9-6c-.7-1.5-2.2-2.6-3.9-2.8l-6.6-.8c-.7,0-7.5-.9-18-.9-18.8,0-55.2,2.6-90.5,19.5-21.2-19.3-64.3-42.3-76.7-42.3s-55.6,23-76.7,42.3c-35.3-16.9-71.7-19.5-90.5-19.5s-17.2.8-18,.9l-6.6.8c-1.7.2-3.2,1.3-3.9,2.8l-2.9,6c-1,2-23,48.7-14.4,96.2-15.7,10.5-45.3,35.3-46.4,72.5l-169.9,2.3c-4.6,0-8.9,1.9-12.1,5.2-3.2,3.3-4.9,7.6-4.9,12.2.1,9.4,7.8,17,17.2,17l169.5-2.3c.1,6.2.3,12.2.6,18.1l-183.9,6.6c-4.6.2-8.8,2.1-12,5.5-3.1,3.4-4.8,7.7-4.6,12.3.3,9.3,7.9,16.6,17.2,16.6s.5,0,.7,0l185.2-6.7c.7,6.2,1.5,12.1,2.5,17.5l-202.5,11.6c-4.6.3-8.8,2.3-11.8,5.7-3.1,3.4-4.6,7.8-4.3,12.4.5,9.1,8.1,16.2,17.1,16.2s.6,0,1,0l209.8-12c.2.5.4,1,.7,1.5-1.9,5.4-3.7,10.7-5.4,15.8l-220.6,17.2c-9.4.7-16.5,9-15.8,18.5.7,8.9,8.2,15.9,17.1,15.9s1,0,1.4,0l207.3-16.2c-.4,1.6-.8,3.2-1.2,4.7-.6,2.2-.1,4.6,1.2,6.5,1.3,1.9,3.5,3.1,5.9,3.4,20.6,1.7,34.4,3.8,44.6,6.6,5.6,1.6,10.4,5,13.6,9.7,15.1,22.5,27.7,36.7,43.5,49.3,74.8,59.4,133.8,71.6,150.1,73.9,0,0,.1,0,.2,0l1.7.2c.2,0,.3,0,.5,0s.3,0,.5,0l1.8-.2c0,0,.1,0,.2,0,16.3-2.3,75.2-14.5,150-73.9,15.8-12.5,28.4-26.8,43.5-49.3,3.1-4.7,7.9-8.1,13.5-9.7,10.2-2.9,23.9-4.9,44.6-6.6,2.4-.2,4.5-1.4,5.8-3.4,1.3-1.9,1.8-4.2,1.2-6.5-3-12.2-7-25.7-11.8-40.2l52-3.6c.6,0,1.3,0,1.9.3l21.8,8.6c1.7,5.8,5.1,11,9.7,15,6.5,5.6,14.9,8.5,23.5,7.9,11.2-.8,21-7.2,26.3-17l32.6-2.2c4.6-.3,8.8-2.4,11.8-5.9,3-3.5,4.5-7.9,4.2-12.5-.6-9-8.1-16-17.1-16s-.8,0-1.2,0l-32.6,2.2c-6-8.3-15.8-13.3-26.1-13.3s-1.5,0-2.3,0c-7.2.5-14.1,3.5-19.5,8.3l-18.5-7.3c-5.3-2.1-11.2-3-16.8-2.6l-48.7,3.3c.6-2.4,1.2-4.9,1.8-7.6l127.8-6.4c9.5-.5,16.8-8.6,16.3-18-.5-9.2-8-16.3-17.2-16.3s-.5,0-.8,0l-121.1,6.1c.2-2.5.5-5.2.7-7.8l233.7-7.2c4.6-.1,8.8-2.1,12-5.4,3.1-3.3,4.8-7.7,4.7-12.3-.3-9.3-7.9-16.7-17.3-16.7ZM740.6,318c-2.6,0-4.7,2.1-4.8,4.7-.5,7.8-1.1,15.1-1.9,21.8-.2,1.5.3,2.9,1.3,4,1,1.1,2.4,1.6,3.9,1.6l129.2-6.5c2.9-.1,5.3,2,5.5,4.9,0,1.4-.4,2.7-1.3,3.7-.9,1-2.2,1.6-3.6,1.7l-131.2,6.6h-.2c-.2,0-.6,0-.7,0-2.7-.4-5.2,1.4-5.7,4-1.5,8.3-3.3,15.5-5.3,21.5-.5,1.6-.3,3.3.8,4.7,1,1.3,2.6,2.1,4.3,1.9l58.7-4c3.9-.3,7.9.4,11.6,1.8l22.9,9c2,.8,4.4.2,5.8-1.5,3.6-4.5,8.9-7.3,14.5-7.7,8-.6,15.6,3.7,19.4,10.9.9,1.8,2.8,2.8,4.8,2.7l36.8-2.5c1.3,0,2.7.3,3.7,1.2,1.1.9,1.7,2.2,1.8,3.6.2,2.9-2,5.3-4.8,5.5l-36.8,2.5c-2,.1-3.7,1.4-4.4,3.3-2.8,7.6-9.7,12.9-17.7,13.4-5.5.4-10.6-1.4-14.8-5-3.6-3.1-5.9-7.3-6.7-12-.3-1.7-1.5-3.2-3.1-3.8l-25.2-9.9c-2.2-.9-4.7-1.3-7.1-1.1l-61.1,4.2c-1.6.1-3,.9-3.8,2.2-.9,1.3-1.1,2.9-.6,4.4,5.4,15.6,9.8,30.1,13.2,43.2-18.9,1.7-32,3.8-42.1,6.6-8.4,2.3-15.5,7.5-20.3,14.5-14.4,21.4-26.2,34.9-41,46.6-72.3,57.4-128.5,69.1-144.2,71.4h-.9c0,0-.9,0-.9,0-15.7-2.3-71.9-14-144.2-71.4-14.8-11.7-26.7-25.2-41-46.6-4.7-7-11.9-12.2-20.3-14.5-10.1-2.8-23.2-4.9-42.1-6.6.8-3,1.6-6.1,2.6-9.4.4-1.6,0-3.3-.9-4.5-1-1.3-2.6-1.9-4.3-1.8l-217.3,17c0,0-.1,0-.2,0,0,0-.2,0-.3,0-2.7,0-4.9-2.1-5.2-4.8-.2-2.9,1.9-5.4,4.8-5.6l225.2-17.6c2-.2,3.7-1.5,4.4-3.4,2.4-7.3,5-14.9,7.7-22.7.5-1.3.4-2.8-.3-4-1.2-2.3-2.3-4.9-3.4-7.8-.8-2.1-2.8-3.4-5-3.3l-214.8,12.3c-2.8.2-5.3-2-5.5-4.9-.2-2.9,2-5.3,4.9-5.5l210.5-12.1c1.5,0,2.8-.8,3.7-1.9s1.2-2.6.9-4.1c-1.8-8.9-3.3-19.2-4.5-30.7-.3-2.6-2.5-4.6-5.2-4.5l-191.8,6.9c0,0-.2,0-.2,0h0c-2.8,0-5.1-2.2-5.2-5,0-1.4.4-2.7,1.4-3.7.9-1,2.2-1.6,3.6-1.7l191-6.9c1.3,0,2.6-.6,3.5-1.6.9-1,1.4-2.3,1.3-3.7-.6-10.1-.9-20.7-1-31.7,0-1.3-.6-2.6-1.5-3.5-1-.9-2.2-1.4-3.6-1.4l-176.2,2.4h-.1c-2.8,0-5.1-2.3-5.2-5.1,0-1.4.5-2.7,1.5-3.7,1-1,2.3-1.5,3.6-1.6l176.7-2.4c2.7,0,4.9-2.2,4.9-4.9,0-2.2,0-3.9.1-5,0,0,0,0,0-.1.1-36.5,34.3-60.4,44.8-66.9,1.8-1.1,2.7-3.3,2.3-5.4-10.1-45,11.6-91.2,12.6-93.2l1.2-2.6,2.8-.3c2.3-.3,55.8-6.3,106.1,19.7,2,1,4.3.6,5.9-1,18.7-19.2,63.2-42.2,71.8-42.2s53.1,23,71.8,42.2c1.5,1.6,3.9,2,5.9,1,50.2-26,103.8-19.9,106.1-19.7l2.8.3,1.2,2.6c.9,1.9,22.8,47.9,12.6,93.2-.5,2.1.4,4.2,2.3,5.4,10.4,6.4,44.2,30,44.8,66.1,0,2.7,2.3,4.9,5,4.9l63.8-.6c2.4,0,4.8-.6,7-1.6l24.4-11.9c1.6-.8,2.6-2.3,2.8-4.1.4-4.7,2.4-9.1,5.7-12.5,3.8-3.9,8.9-6,14.3-6.1h.2c8,0,15.2,4.7,18.5,12,.8,1.8,2.6,2.9,4.6,2.9h0l46.9-.4c2.8,0,5.2,2.3,5.2,5.1,0,1.4-.5,2.7-1.5,3.7-1,1-2.3,1.5-3.6,1.6l-46.9.4c-2,0-3.8,1.2-4.6,3-1,2.3-2.4,4.4-4.2,6.2-3.8,3.9-8.9,6-14.3,6.1h-.2c-5.4,0-10.4-2.1-14.2-5.8,0,0,0,0,0,0,0,0-.2-.2-.2-.3-.1-.1-.2-.3-.4-.4-1.5-1.6-3.9-2-5.8-1.1l-22.1,10.8c-3.5,1.7-7.5,2.6-11.4,2.7l-63.7.6c-2.7,0-4.9,2.2-5,5,0,7.4-.2,14.8-.4,22,0,1.4.5,2.7,1.5,3.7,1,1,2.3,1.5,3.7,1.5l238.3-7.4c2.9,0,5.3,2.1,5.4,5,0,1.4-.5,2.7-1.4,3.7-.9,1-2.2,1.6-3.6,1.6l-240,7.4Z" fill="#010101"/>
  </g>
</svg>
