<svg viewBox="0 0 24 24" xmlns="http://www.w3.org/2000/svg"><path d="M20.32 4.57A19.8 19.8 0 0 0 15.4 3.05a13.9 13.9 0 0 0-.63 1.29 18.3 18.3 0 0 0-5.52 0 12.6 12.6 0 0 0-.64-1.29A19.7 19.7 0 0 0 3.68 4.57 20.3 20.3 0 0 0 .18 18.3a19.9 19.9 0 0 0 6.07 3.07c.49-.67.93-1.38 1.3-2.13a13 13 0 0 1-2.05-.98c.17-.13.34-.26.5-.4a14.2 14.2 0 0 0 12.1 0c.17.14.33.27.5.4-.65.39-1.34.72-2.05.98.37.75.81 1.46 1.3 2.13a19.9 19.9 0 0 0 6.07-3.07 20.2 20.2 0 0 0-3.5-13.73ZM8.02 15.33c-1.18 0-2.15-1.09-2.15-2.42 0-1.34.95-2.43 2.15-2.43 1.2 0 2.17 1.1 2.15 2.43 0 1.33-.95 2.42-2.15 2.42Zm7.96 0c-1.18 0-2.15-1.09-2.15-2.42 0-1.34.95-2.43 2.15-2.43 1.2 0 2.17 1.1 2.15 2.43 0 1.33-.95 2.42-2.15 2.42Z"/></svg>
