<svg viewBox="0 0 24 24" xmlns="http://www.w3.org/2000/svg"><path d="M12 2.2c-2.66 0-3 .01-4.04.06-1.05.05-1.76.22-2.39.46-.65.25-1.2.59-1.75 1.14-.55.55-.89 1.1-1.14 1.75-.24.63-.41 1.34-.46 2.39C2.21 9 2.2 9.34 2.2 12s.01 3 .06 4.04c.05 1.05.22 1.76.46 2.39.25.65.59 1.2 1.14 1.75.55.55 1.1.89 1.75 1.14.63.24 1.34.41 2.39.46 1.04.05 1.38.06 4.04.06s3-.01 4.04-.06c1.05-.05 1.76-.22 2.39-.46.65-.25 1.2-.59 1.75-1.14.55-.55.89-1.1 1.14-1.75.24-.63.41-1.34.46-2.39.05-1.04.06-1.38.06-4.04s-.01-3-.06-4.04c-.05-1.05-.22-1.76-.46-2.39a4.83 4.83 0 0 0-1.14-1.75 4.83 4.83 0 0 0-1.75-1.14c-.63-.24-1.34-.41-2.39-.46C15 2.21 14.66 2.2 12 2.2Zm0 1.8c2.6 0 2.92.01 3.95.06.95.04 1.47.2 1.82.34.46.18.78.39 1.12.73.34.34.55.66.73 1.12.14.35.3.87.34 1.82.05 1.03.06 1.35.06 3.95s-.01 2.92-.06 3.95c-.04.95-.2 1.47-.34 1.82-.18.46-.39.78-.73 1.12-.34.34-.66.55-1.12.73-.35.14-.87.3-1.82.34-1.03.05-1.35.06-3.95.06s-2.92-.01-3.95-.06c-.95-.04-1.47-.2-1.82-.34a3.02 3.02 0 0 1-1.12-.73 3.02 3.02 0 0 1-.73-1.12c-.14-.35-.3-.87-.34-1.82C4.01 14.92 4 14.6 4 12s.01-2.92.06-3.95c.04-.95.2-1.47.34-1.82.18-.46.39-.78.73-1.12.34-.34.66-.55 1.12-.73.35-.14.87-.3 1.82-.34C9.08 4.01 9.4 4 12 4Zm0 3.06a4.94 4.94 0 1 0 0 9.88 4.94 4.94 0 0 0 0-9.88Zm0 8.15a3.21 3.21 0 1 1 0-6.42 3.21 3.21 0 0 1 0 6.42Zm6.29-8.35a1.15 1.15 0 1 1-2.3 0 1.15 1.15 0 0 1 2.3 0Z"/></svg>
