<?xml version="1.0" standalone="no"?>
<!DOCTYPE svg PUBLIC "-//W3C//DTD SVG 20010904//EN"
 "http://www.w3.org/TR/2001/REC-SVG-20010904/DTD/svg10.dtd">
<svg version="1.0" xmlns="http://www.w3.org/2000/svg"
 width="1254.000000pt" height="1254.000000pt" viewBox="0 0 1254.000000 1254.000000"
 preserveAspectRatio="xMidYMid meet">
<metadata>
Created by potrace 1.16, written by Peter Selinger 2001-2019
</metadata>
<g transform="translate(0.000000,1254.000000) scale(0.100000,-0.100000)"
fill="#000000" stroke="none">
<path d="M8970 9590 c-25 -5 -265 -56 -535 -114 -925 -199 -1395 -302 -1960
-427 -247 -55 -594 -131 -770 -169 -435 -94 -1151 -252 -1605 -354 -1232 -278
-1129 -252 -1239 -312 -138 -76 -213 -147 -384 -367 -173 -222 -235 -349 -257
-526 -11 -80 -7 -122 85 -1026 l45 -440 86 -245 86 -244 157 -233 c826 -1230
764 -1148 975 -1288 212 -141 384 -199 591 -197 103 1 139 6 257 36 154 40
1135 307 1438 391 107 30 247 68 310 85 63 18 300 83 525 145 226 63 552 153
725 200 173 48 574 159 890 247 316 88 670 186 785 218 116 32 300 84 410 115
110 31 297 83 415 116 317 89 428 151 586 324 84 91 233 292 295 396 49 82
105 240 118 334 16 111 13 1404 -3 1540 -14 111 -55 246 -93 302 -10 16 -25
41 -33 57 -14 27 -125 135 -421 407 -80 74 -301 278 -490 455 -189 176 -380
353 -424 393 -162 148 -372 215 -565 181z m370 -149 c56 -27 77 -45 315 -266
77 -71 169 -156 204 -187 35 -32 62 -60 60 -62 -2 -1 -25 0 -50 3 -44 6 -60
18 -300 241 -357 331 -339 313 -309 304 14 -3 50 -18 80 -33z m566 -562 c36
-6 80 -22 103 -37 34 -24 443 -394 438 -398 -1 -1 -42 6 -90 14 -110 19 -161
13 -460 -57 -534 -125 -705 -166 -1022 -241 -187 -45 -398 -94 -470 -111 -71
-17 -281 -66 -465 -109 -184 -44 -481 -113 -660 -154 -179 -42 -458 -107 -620
-146 -162 -38 -486 -115 -720 -170 -234 -55 -528 -125 -655 -155 -126 -30
-414 -97 -640 -150 -225 -53 -456 -107 -513 -120 -265 -63 -390 -155 -693
-508 -133 -154 -190 -246 -227 -367 -41 -134 -43 -82 48 -1100 16 -179 36
-413 45 -520 9 -107 18 -201 20 -207 2 -7 1 -13 -3 -13 -5 0 -22 28 -40 63
-29 58 -32 74 -47 257 -9 107 -33 389 -55 625 -65 719 -65 716 -46 824 31 178
86 280 259 481 152 178 321 342 410 400 37 23 67 45 67 47 0 3 -53 64 -118
136 -186 207 -422 479 -422 487 0 4 11 12 24 18 28 12 14 26 356 -358 85 -96
171 -193 192 -215 l36 -40 69 22 c37 12 140 38 228 58 88 20 390 91 670 156
281 66 661 156 845 199 184 43 508 120 720 170 212 50 511 120 665 156 154 35
415 96 580 135 165 39 363 86 440 104 77 18 496 117 930 220 955 226 1038 244
1115 247 33 2 59 5 57 8 -2 5 -115 109 -263 243 -51 46 -57 48 -134 57 -80 9
-86 8 -373 -60 -316 -74 -968 -227 -1242 -291 -93 -21 -235 -55 -315 -74 -80
-19 -230 -54 -335 -79 -104 -24 -262 -62 -350 -83 -144 -34 -173 -38 -285 -37
-132 1 -88 -7 -765 137 -215 46 -248 62 -370 175 -66 62 -121 104 -163 124
-98 47 -143 43 -482 -42 -157 -39 -408 -100 -558 -135 -280 -66 -329 -84 -350
-130 -20 -43 -14 -70 26 -116 117 -135 136 -185 89 -233 -23 -23 -172 -63
-572 -155 -71 -16 -193 -44 -270 -61 -77 -18 -168 -43 -203 -56 -128 -48 -253
-155 -444 -381 -225 -266 -274 -364 -285 -565 l-6 -107 41 -63 c22 -35 47 -85
56 -113 15 -50 46 -344 46 -445 0 -66 5 -74 49 -77 123 -8 226 -277 161 -420
-19 -42 -27 -48 -112 -82 -34 -13 -34 -8 0 -353 4 -43 5 -78 2 -78 -3 1 -18
22 -35 47 -26 43 -31 62 -46 210 -10 89 -20 171 -23 180 -12 40 -55 453 -50
480 6 31 -32 458 -45 509 -5 17 -27 62 -50 99 -49 83 -55 110 -48 234 5 105
38 221 84 301 65 112 353 460 441 534 26 21 74 56 106 77 l59 37 -50 54 c-27
29 -103 113 -168 187 l-118 134 23 19 c19 15 25 16 38 6 8 -7 87 -93 174 -190
88 -98 161 -178 162 -178 2 0 23 7 47 16 24 8 172 45 329 81 283 65 466 107
589 136 103 24 104 30 22 125 -38 45 -75 90 -80 101 -17 31 -13 103 8 137 41
68 75 82 333 145 134 33 390 95 570 140 180 44 351 83 380 86 59 6 154 -14
217 -47 22 -11 87 -64 144 -119 58 -55 122 -107 143 -116 21 -8 92 -27 158
-41 704 -147 700 -146 801 -147 95 -1 128 6 660 131 308 73 864 204 1235 292
371 87 713 167 760 178 97 23 195 27 286 11z m-4260 -354 c73 -46 86 -118 26
-149 -15 -7 -261 -68 -546 -136 -571 -134 -585 -136 -651 -85 -65 49 -71 105
-14 147 15 12 156 51 365 103 186 46 402 99 479 119 183 46 267 46 341 1z
m4764 -326 c85 -13 185 -62 291 -142 143 -108 204 -213 220 -377 6 -55 9 -383
7 -765 -4 -654 -4 -672 -26 -741 -47 -154 -107 -260 -260 -454 -104 -133 -195
-223 -281 -282 -124 -85 -126 -85 -691 -243 -151 -42 -376 -105 -500 -140
-124 -35 -364 -102 -535 -150 -170 -47 -348 -97 -395 -110 -133 -37 -522 -145
-900 -249 -645 -177 -1044 -287 -1280 -352 -509 -141 -1343 -367 -1488 -405
-284 -73 -417 -51 -692 114 -148 89 -246 213 -284 362 -8 33 -24 173 -36 310
-12 138 -32 376 -45 530 -62 701 -61 689 -43 777 31 146 86 240 256 434 171
194 228 246 338 309 96 55 170 79 444 145 118 28 694 171 1280 317 586 145
1337 332 1670 414 1012 251 1832 457 2470 621 360 92 375 94 480 77z"/>
<path d="M5165 8426 c-165 -41 -380 -93 -478 -116 -213 -51 -241 -70 -168
-113 33 -20 63 -21 123 -7 286 69 551 133 628 150 52 12 99 26 105 31 5 5 27
9 50 9 65 1 220 43 220 60 0 25 -75 60 -130 59 -27 0 -185 -33 -350 -73z"/>
<path d="M9875 8039 c-502 -128 -1739 -438 -2285 -573 -234 -58 -942 -234
-1575 -391 -632 -157 -1296 -322 -1475 -366 -462 -114 -498 -134 -750 -418
-266 -299 -283 -359 -241 -836 12 -132 30 -341 41 -465 59 -686 60 -689 85
-756 53 -140 124 -212 323 -324 140 -80 295 -113 422 -90 85 15 701 182 2315
626 429 119 935 258 1125 310 190 52 400 111 468 130 67 18 177 49 245 68 324
91 1085 305 1447 407 311 89 403 160 660 511 61 84 100 148 120 201 60 154 60
152 60 920 0 757 -1 771 -53 860 -56 95 -234 230 -351 266 -114 35 -151 30
-581 -80z m-94 -288 l66 -49 6 -123 c8 -146 9 -239 2 -239 -3 0 -32 17 -65 37
l-60 38 0 102 0 101 -33 21 -33 20 -155 -39 -154 -39 -62 42 c-35 23 -63 45
-63 48 0 4 28 14 63 23 194 50 413 105 417 105 3 0 35 -22 71 -48z m-559 -167
l88 -65 -26 -42 c-15 -23 -40 -61 -57 -84 l-29 -42 36 -31 c33 -29 36 -37 36
-86 0 -50 -4 -58 -60 -131 l-59 -78 -153 -39 c-143 -36 -154 -40 -188 -77 -30
-33 -47 -41 -115 -58 -43 -11 -81 -18 -83 -16 -4 4 82 115 151 198 19 23 47
34 175 67 84 22 155 40 157 40 2 0 16 16 31 35 l27 36 -23 24 c-13 14 -31 25
-39 25 -9 0 -69 -13 -134 -29 -93 -23 -122 -34 -137 -54 -57 -72 -94 -112
-104 -112 -8 0 -12 52 -14 168 -3 192 -3 191 79 132 l49 -35 131 33 c129 31
133 33 158 71 l25 38 -23 19 c-13 11 -30 19 -38 19 -8 0 -77 -16 -155 -35
l-140 -36 -70 42 c-39 24 -80 50 -91 60 -21 16 -20 17 37 29 32 6 77 9 100 6
29 -4 83 5 191 33 83 22 157 39 165 40 8 0 54 -29 102 -65z m238 -233 c0 -42
3 -86 6 -97 6 -21 7 -22 67 -8 34 8 64 17 67 20 3 3 -8 16 -23 28 l-28 23 80
21 79 21 136 -82 c75 -45 136 -85 136 -89 0 -3 -39 -15 -86 -27 -86 -20 -87
-20 -113 0 -26 19 -27 19 -96 0 -39 -11 -115 -31 -169 -45 l-100 -26 -33 23
c-19 12 -35 31 -38 42 -6 31 -13 344 -7 349 2 3 31 -13 63 -36 l59 -41 0 -76z
m1214 -197 c9 -9 13 -21 9 -29 -7 -11 -144 -136 -220 -200 -13 -11 -23 -22
-23 -26 0 -4 50 6 112 22 117 29 138 27 138 -12 0 -25 -15 -31 -200 -78 -224
-56 -208 -54 -220 -32 -16 31 3 57 111 155 54 50 97 91 96 92 -1 2 -43 -9 -93
-23 -96 -27 -124 -26 -124 5 0 30 16 38 165 77 77 20 154 43 170 50 40 18 60
18 79 -1z m-2394 -279 c17 -16 34 -45 39 -65 15 -57 25 -1119 11 -1155 -13
-36 -55 -82 -90 -100 -14 -7 -92 -31 -175 -53 -265 -72 -485 -132 -690 -187
-110 -29 -274 -74 -365 -98 -91 -25 -219 -60 -285 -77 -115 -30 -466 -125
-925 -250 -118 -32 -379 -102 -580 -155 -201 -53 -413 -109 -471 -126 -58 -16
-115 -29 -127 -29 -43 0 -54 37 -68 248 -23 339 -53 771 -65 928 -11 160 -7
188 35 223 8 7 190 57 403 111 802 203 1484 377 2333 595 969 249 960 247
1020 190z m2407 -181 c13 -34 -14 -48 -193 -95 -199 -53 -207 -55 -223 -36
-24 30 13 49 195 97 203 55 212 56 221 34z m-643 -160 c20 -20 6 -49 -26 -56
-26 -6 -325 -84 -608 -158 -698 -183 -772 -202 -782 -192 -13 13 -7 43 12 53
8 5 258 71 555 149 683 177 809 211 814 216 8 8 20 4 35 -12z m84 -447 c3 -21
-4 -31 -37 -52 -23 -14 -41 -29 -41 -34 0 -5 17 -13 38 -18 30 -7 38 -14 40
-35 4 -35 -40 -48 -70 -21 -11 10 -23 17 -27 16 -3 -2 -14 0 -24 3 -21 7 -87
-40 -87 -61 0 -7 -14 -18 -31 -24 -41 -14 -39 -15 -39 17 0 19 10 35 35 55 44
35 44 47 3 47 -44 0 -60 12 -56 40 4 29 55 47 72 26 6 -8 28 -16 50 -19 36 -6
42 -3 81 37 61 63 88 70 93 23z m-419 -90 c21 -26 24 -75 8 -101 -14 -21 -14
-26 -2 -36 23 -19 18 -37 -13 -48 -23 -8 -33 -6 -53 9 -28 21 -50 23 -98 5
-24 -8 -35 -20 -38 -36 -4 -27 -19 -40 -46 -40 -16 0 -18 8 -16 68 1 38 -1 74
-5 80 -16 27 14 50 91 70 43 12 94 25 113 31 48 13 46 13 59 -2z m-378 -174
c3 -103 -5 -111 -137 -149 -92 -27 -112 -30 -129 -19 -31 20 -26 57 10 66 17
5 32 4 35 -1 4 -6 19 -6 40 0 19 5 54 14 78 20 41 11 42 11 42 55 0 44 0 44
-30 39 -27 -6 -30 -4 -30 19 0 22 6 28 43 37 23 6 47 13 52 14 19 6 24 -9 26
-81z m-413 -45 c7 -7 12 -44 12 -94 0 -65 -3 -83 -16 -88 -31 -12 -44 -6 -44
19 0 30 -4 30 -95 7 -65 -17 -70 -20 -73 -48 -4 -31 -17 -44 -44 -44 -16 0
-18 11 -18 88 0 109 6 116 123 148 94 26 138 29 155 12z m805 -66 c12 -11 17
-30 17 -72 0 -81 -26 -103 -166 -141 -60 -16 -110 -29 -111 -29 -2 0 -3 29 -3
65 0 67 2 71 45 77 16 2 21 -3 23 -29 4 -38 7 -39 87 -15 l60 18 -3 40 c-2 21
-6 41 -8 43 -2 2 -48 -7 -101 -22 -99 -26 -118 -25 -111 9 2 15 29 26 118 50
118 32 122 32 153 6z m-5547 -30 c34 -27 45 -57 47 -130 2 -61 -1 -73 -26
-105 -15 -21 -40 -43 -55 -51 -47 -23 -170 -49 -205 -42 -109 20 -133 217 -36
288 32 24 150 56 209 57 29 0 53 -6 66 -17z m5153 -66 c7 -8 12 -31 11 -53 -1
-21 2 -50 5 -64 12 -48 -25 -73 -153 -104 -107 -26 -115 -27 -130 -11 -16 16
-16 18 0 30 9 6 62 22 117 35 62 15 101 29 101 36 0 10 -16 9 -70 -5 -42 -11
-72 -14 -76 -9 -13 21 7 38 63 54 88 24 88 24 76 36 -14 14 -131 -17 -160 -43
-24 -22 -66 -21 -71 2 -6 33 25 53 129 81 121 32 142 34 158 15z m-5091 -319
c4 -32 2 -33 -153 -72 -138 -35 -147 -42 -143 -113 4 -81 12 -83 169 -44 81
20 136 29 142 23 5 -5 7 -19 5 -32 -3 -21 -16 -28 -118 -56 -149 -41 -192 -42
-230 -5 -56 56 -50 199 10 244 25 18 272 88 300 85 8 -1 16 -14 18 -30z m26
-344 c2 -10 8 -71 11 -137 7 -124 4 -135 -36 -136 -12 0 -18 12 -22 45 -2 26
-6 48 -8 50 -3 2 -63 -12 -134 -31 -164 -43 -167 -43 -163 -2 3 32 6 34 73 51
39 10 105 27 147 39 l77 20 -6 45 c-5 38 -3 48 12 59 25 19 43 17 49 -3z"/>
<path d="M8120 6836 c-30 -9 -44 -17 -41 -27 16 -58 20 -157 24 -542 l5 -438
75 -82 c62 -67 78 -79 86 -67 7 10 9 108 6 280 -3 146 -7 396 -10 555 l-5 290
-26 23 c-28 24 -48 26 -114 8z"/>
<path d="M7305 6629 c-1414 -362 -2515 -643 -2621 -668 -130 -30 -148 -42
-139 -85 3 -17 19 -226 35 -465 21 -308 33 -438 42 -447 14 -13 9 -15 1598
406 102 27 253 67 335 89 250 65 651 170 805 212 80 21 260 68 400 104 176 44
259 70 268 82 12 15 13 98 7 468 -4 282 -11 455 -17 463 -6 6 -20 12 -32 11
-11 0 -318 -77 -681 -170z"/>
<path d="M8030 5781 c-8 -5 -123 -37 -255 -71 -132 -33 -429 -111 -660 -172
-639 -169 -1001 -264 -1205 -318 -102 -27 -349 -92 -550 -144 -623 -163 -645
-169 -661 -177 -15 -8 -59 -176 -59 -228 0 -28 -25 -33 285 52 132 36 337 91
455 122 118 31 287 76 375 100 415 113 775 210 1035 280 157 42 416 112 575
155 160 43 394 106 520 140 322 86 335 90 335 103 0 15 -151 167 -165 167 -6
0 -17 -5 -25 -9z"/>
<path d="M4000 5610 c-35 -10 -70 -26 -77 -36 -21 -29 -17 -110 7 -134 24 -24
19 -24 116 0 94 24 114 43 114 107 0 88 -30 100 -160 63z"/>
</g>
</svg>
