<svg xmlns="http://www.w3.org/2000/svg" width="24" height="24" viewBox="0 0 24 24" fill="none" stroke="#1c2030" stroke-width="2" stroke-linecap="round" stroke-linejoin="round">
  <path d="M8 2l1.5 1.5"/>
  <path d="M16 2l-1.5 1.5"/>
  <path d="M9 7V6a3 3 0 0 1 6 0v1"/>
  <path d="M6 9v3c0 3.31 2.69 6 6 6s6-2.69 6-6V9a2 2 0 0 0-2-2H8a2 2 0 0 0-2 2Z"/>
  <path d="M12 11v7"/>
  <path d="M6 10H3"/>
  <path d="M6 14H3"/>
  <path d="M21 10h-3"/>
  <path d="M21 14h-3"/>
  <path d="M5.5 6.5 4 5"/>
  <path d="M18.5 6.5 20 5"/>
</svg>
