<?xml version="1.0" standalone="no"?>
<!DOCTYPE svg PUBLIC "-//W3C//DTD SVG 20010904//EN"
 "http://www.w3.org/TR/2001/REC-SVG-20010904/DTD/svg10.dtd">
<svg version="1.0" xmlns="http://www.w3.org/2000/svg"
 width="1254.000000pt" height="1254.000000pt" viewBox="0 0 1254.000000 1254.000000"
 preserveAspectRatio="xMidYMid meet">
<metadata>
Created by potrace 1.16, written by Peter Selinger 2001-2019
</metadata>
<g transform="translate(0.000000,1254.000000) scale(0.100000,-0.100000)"
fill="#000000" stroke="none">
<path d="M6360 10574 c-704 -89 -1409 -608 -1838 -1354 -104 -181 -197 -409
-235 -576 l-14 -62 361 -249 c199 -137 366 -253 372 -256 7 -4 19 23 32 74 69
257 267 642 460 893 245 319 563 590 886 756 500 255 974 288 1371 95 199 -96
351 -236 461 -421 85 -144 146 -318 161 -457 6 -57 7 -59 32 -53 14 3 58 12
96 21 349 76 718 -34 942 -280 123 -134 213 -317 256 -515 30 -141 30 -393 -1
-549 -70 -350 -230 -660 -487 -942 l-95 -104 0 -110 c0 -126 -8 -162 -50 -228
l-30 -48 25 -33 c55 -72 55 -74 55 -494 0 -444 -2 -460 -73 -536 -40 -44 -55
-52 -292 -142 -137 -52 -403 -154 -590 -226 -187 -71 -497 -190 -690 -263
-192 -73 -377 -143 -410 -157 l-60 -24 -2 -175 -2 -174 217 -146 217 -146 3
-121 3 -122 37 0 c20 0 312 -11 647 -25 336 -14 635 -25 666 -25 l57 0 11 44
c24 97 128 188 265 233 116 37 289 44 404 15 153 -39 268 -117 311 -212 46
-102 15 -233 -72 -304 -109 -88 -243 -130 -417 -129 -224 1 -410 83 -473 209
l-16 31 -188 7 c-103 4 -345 13 -538 21 -192 8 -428 17 -522 21 l-173 7 0 -36
c0 -39 -27 -67 -65 -67 -41 0 -45 17 -45 177 0 90 -4 153 -9 153 -6 0 -86 -30
-178 -66 -322 -126 -454 -174 -476 -174 -12 0 -98 52 -191 115 -93 63 -173
115 -178 115 -4 0 -8 -38 -8 -85 0 -76 2 -86 25 -109 58 -58 31 -72 -255 -134
-563 -123 -1336 -293 -1352 -298 -14 -4 -18 -16 -18 -53 0 -131 -122 -244
-320 -298 -77 -21 -276 -24 -358 -5 -78 18 -193 74 -242 118 -122 110 -121
287 2 401 170 156 532 182 748 54 36 -22 81 -55 99 -75 19 -20 42 -36 51 -36
9 0 261 54 561 120 299 67 630 139 734 161 105 22 201 44 213 50 24 9 24 10
20 159 -2 91 1 153 7 158 9 9 285 120 378 153 l37 13 0 163 c0 99 -4 163 -10
163 -12 0 -82 -26 -507 -189 -227 -87 -356 -131 -382 -131 -62 0 -113 24 -244
113 -67 47 -320 218 -562 382 -242 163 -451 307 -464 319 -13 11 -32 39 -42
61 -17 37 -19 73 -19 463 0 395 1 425 19 460 10 20 28 45 39 55 21 19 21 19
-14 64 -19 24 -36 54 -39 66 -3 12 -5 222 -3 467 l3 445 33 67 c33 68 95 139
144 164 16 8 97 41 181 74 83 32 278 108 432 168 306 120 305 119 838 328 203
80 403 158 445 173 43 16 172 66 287 111 851 333 822 323 915 323 112 1 144
-14 391 -185 107 -74 370 -256 584 -404 215 -148 403 -282 418 -299 47 -51 57
-107 57 -317 0 -114 4 -187 9 -183 21 13 164 199 217 281 112 178 197 384 240
584 15 66 19 128 19 275 0 177 -2 197 -28 290 -93 339 -297 558 -604 652 -78
23 -105 26 -243 27 -145 1 -163 -1 -282 -32 -99 -26 -131 -31 -147 -23 -21 12
-22 17 -41 164 -21 169 -108 380 -211 513 -337 437 -967 516 -1594 200 -411
-208 -744 -521 -1018 -956 -163 -258 -250 -474 -329 -811 -11 -48 -37 -59
-134 -52 -327 23 -726 -175 -990 -490 -140 -167 -252 -362 -312 -547 -44 -133
-52 -176 -65 -335 -12 -133 -13 -140 -37 -151 -14 -7 -63 -30 -110 -52 -330
-154 -610 -536 -679 -926 -16 -86 -13 -245 5 -334 19 -94 88 -239 144 -304 50
-58 160 -132 237 -160 79 -28 260 -36 359 -15 39 9 222 72 405 141 184 69 341
126 349 128 12 2 15 -8 15 -51 l0 -53 -330 -125 c-370 -140 -438 -160 -569
-169 -308 -22 -577 153 -685 446 -119 322 -53 700 185 1062 112 170 300 347
467 439 l48 26 -63 45 c-35 25 -195 136 -356 247 l-293 202 -47 -27 c-197
-114 -367 -282 -494 -487 -93 -149 -172 -349 -205 -517 -22 -116 -22 -348 1
-454 21 -97 66 -212 113 -288 64 -106 125 -160 376 -335 133 -92 301 -210 372
-261 214 -154 327 -196 530 -195 181 0 195 4 927 280 l67 26 27 -32 c14 -17
186 -140 383 -272 196 -132 453 -306 571 -386 274 -185 275 -186 380 -191 l85
-4 185 70 c102 39 268 102 370 141 102 39 186 71 187 71 2 0 3 -29 3 -64 0
-42 -4 -66 -12 -69 -302 -116 -367 -143 -388 -163 -24 -23 -25 -31 -30 -166
l-5 -142 -30 -7 c-16 -4 -118 -26 -225 -49 -107 -23 -408 -89 -669 -146 -391
-86 -476 -102 -490 -92 -9 7 -31 25 -49 40 -48 41 -144 87 -231 110 -59 16
-107 21 -216 21 -124 0 -150 -3 -230 -27 -122 -37 -178 -69 -256 -146 -95 -94
-109 -136 -109 -330 0 -124 3 -159 19 -200 70 -185 287 -301 566 -303 147 0
240 19 352 72 146 70 239 186 250 312 3 32 8 59 12 59 3 0 66 13 141 30 74 16
311 68 525 115 215 47 494 109 620 137 127 28 237 51 245 52 8 0 84 -46 168
-103 85 -56 161 -103 170 -104 9 0 29 2 44 6 26 7 27 5 38 -50 6 -32 13 -65
16 -74 3 -11 -16 -26 -69 -52 -90 -45 -171 -121 -206 -196 -24 -52 -26 -68
-29 -211 -3 -141 -1 -161 19 -215 43 -116 180 -222 346 -267 115 -31 327 -31
438 1 171 48 290 132 345 244 30 62 31 67 33 223 l2 159 -33 67 c-70 142 -237
243 -452 273 l-46 7 -18 105 c-9 58 -16 107 -13 109 2 2 81 33 175 69 157 60
178 65 249 65 98 1 1147 -39 1229 -46 58 -5 61 -6 73 -41 36 -99 214 -215 380
-249 117 -23 317 -15 416 16 155 49 256 122 318 229 l32 56 0 185 0 185 -30
53 c-62 112 -215 213 -375 248 -109 24 -294 22 -391 -4 -158 -42 -289 -131
-347 -234 l-27 -48 -75 0 c-41 0 -230 7 -420 14 -190 8 -434 18 -542 22 l-198
7 0 83 c0 46 -5 93 -11 106 -6 13 -107 88 -224 168 l-214 145 -1 111 0 112 28
10 c15 6 266 102 557 212 292 111 719 274 950 363 416 161 420 162 473 214 30
30 65 78 80 110 l27 58 0 445 0 445 -23 44 -24 43 23 52 c19 41 24 74 27 171
l4 120 72 80 c266 295 432 608 507 953 30 139 38 449 15 582 -64 368 -286 682
-592 838 -23 12 -136 88 -253 171 -238 168 -328 213 -511 259 l-113 29 -36 59
c-122 202 -305 370 -520 478 -45 23 -399 259 -541 361 -106 77 -275 147 -445
185 -88 20 -350 34 -435 24z m544 -7387 c13 -10 29 -71 63 -244 l45 -230 79
-6 c204 -16 371 -103 430 -225 30 -62 30 -153 -1 -216 -62 -130 -256 -216
-485 -216 -296 0 -495 131 -495 326 0 139 119 258 305 305 33 8 45 16 45 30 0
10 -15 96 -34 191 -52 263 -51 253 -27 277 24 24 49 27 75 8z"/>
<path d="M6965 2613 c-115 -18 -201 -52 -260 -105 -47 -41 -65 -77 -65 -131 0
-56 29 -101 94 -144 220 -148 643 -80 707 114 32 97 -69 205 -234 249 -57 15
-194 25 -242 17z"/>
<path d="M3975 8495 c-277 -50 -582 -235 -797 -481 -237 -271 -391 -616 -414
-929 l-6 -90 352 -243 c193 -134 358 -246 366 -249 10 -4 14 4 14 29 0 60 38
250 71 348 58 178 190 414 321 571 256 310 627 522 956 547 l87 7 -65 46 c-36
25 -199 139 -363 253 l-298 206 -77 -1 c-42 0 -108 -7 -147 -14z"/>
<path d="M7580 8031 c-30 -10 -161 -60 -290 -110 -413 -161 -480 -188 -735
-286 -137 -53 -421 -164 -630 -245 -209 -82 -589 -230 -845 -329 -314 -122
-472 -189 -489 -206 -14 -13 -23 -26 -20 -28 2 -2 119 -81 259 -176 140 -95
361 -244 490 -333 129 -88 261 -177 294 -199 l58 -38 42 23 c22 14 118 54 211
89 229 88 668 255 1015 387 465 176 972 369 1010 385 52 22 687 265 745 285
28 10 68 26 89 35 38 16 38 17 20 35 -10 10 -244 172 -519 361 -311 213 -517
347 -544 356 -58 17 -94 16 -161 -6z"/>
<path d="M8625 7114 c-441 -171 -2252 -861 -2730 -1041 -131 -50 -158 -68
-186 -128 -17 -37 -19 -72 -19 -433 0 -513 -7 -498 198 -419 64 25 205 79 312
121 107 41 353 135 545 209 193 75 616 236 940 360 1147 437 1230 470 1256
488 58 41 59 50 59 483 0 268 -4 403 -11 419 -12 26 -48 48 -77 46 -9 0 -138
-48 -287 -105z m71 -292 c29 -19 34 -53 30 -209 -3 -87 -8 -166 -11 -176 -4
-10 -19 -24 -34 -31 -55 -29 -707 -276 -727 -276 -8 0 -23 9 -34 20 -18 18
-20 33 -20 190 l0 170 28 29 c21 22 89 52 297 130 149 55 304 114 345 130 77
31 107 36 126 23z m-1661 -742 c65 -25 65 -132 0 -197 -53 -53 -129 -45 -155
16 -17 43 -5 95 32 137 45 51 76 62 123 44z m-376 -176 c27 -34 27 -98 1 -141
-78 -128 -234 -58 -176 80 34 82 132 115 175 61z m-400 -150 c27 -34 27 -98 1
-141 -53 -88 -166 -90 -185 -2 -10 46 4 87 44 130 32 33 44 39 79 39 32 0 45
-6 61 -26z"/>
<path d="M8365 6611 c-126 -48 -259 -99 -295 -113 l-65 -24 -1 -108 0 -107 24
6 c14 3 151 55 306 114 l281 108 3 106 c2 82 0 107 -10 107 -7 -1 -116 -40
-243 -89z"/>
<path d="M4506 6718 c-3 -13 -6 -210 -6 -439 0 -383 1 -418 18 -437 9 -11 76
-60 147 -108 136 -92 334 -227 696 -476 120 -81 220 -148 223 -148 3 0 6 181
6 403 1 321 4 410 15 442 8 22 11 43 7 46 -8 7 -149 103 -447 304 -121 82
-312 212 -425 288 -112 77 -209 141 -216 144 -6 2 -14 -6 -18 -19z"/>
<path d="M8765 6086 c-77 -29 -378 -144 -670 -256 -291 -111 -633 -241 -760
-290 -126 -48 -327 -125 -445 -170 -118 -45 -282 -108 -365 -140 -82 -32 -204
-79 -270 -104 -386 -145 -491 -188 -513 -208 -51 -47 -52 -58 -52 -486 0 -389
1 -400 21 -426 13 -17 30 -26 49 -26 15 0 205 68 421 151 696 267 1067 408
1384 529 262 100 786 300 1244 476 137 52 153 62 175 107 14 31 16 84 16 435
l0 401 -22 25 c-38 42 -62 40 -213 -18z m-69 -344 c27 -18 34 -56 34 -195 0
-150 -9 -201 -40 -217 -10 -5 -126 -51 -257 -101 -131 -50 -289 -111 -351
-135 -63 -24 -120 -44 -128 -44 -8 0 -23 9 -34 20 -18 18 -20 33 -20 190 l0
170 28 29 c21 22 86 51 282 125 140 53 293 111 340 130 85 34 125 42 146 28z
m-1662 -742 c15 -5 33 -25 42 -43 34 -72 -35 -187 -112 -187 -49 0 -71 14 -84
54 -21 65 21 147 90 175 32 13 34 13 64 1z m-375 -176 c27 -34 27 -98 1 -141
-78 -128 -234 -58 -176 80 34 82 132 115 175 61z m-404 -149 c17 -16 25 -35
25 -60 0 -86 -59 -148 -135 -143 -35 3 -43 8 -59 39 -18 33 -19 41 -7 80 28
94 122 139 176 84z"/>
<path d="M8525 5595 c-49 -19 -187 -72 -305 -117 l-215 -83 -3 -109 -3 -108
26 6 c15 4 99 35 188 70 89 35 214 83 277 106 63 24 119 46 123 50 4 4 6 54 5
113 l-3 106 -90 -34z"/>
<path d="M4530 5641 l-30 -29 0 -412 c0 -248 4 -419 10 -430 9 -17 131 -101
783 -543 l292 -198 5 413 c5 403 6 414 27 458 13 25 19 46 14 48 -4 1 -125 82
-267 179 -143 96 -382 259 -532 360 l-272 184 -30 -30z"/>
<path d="M6798 4258 l-78 -31 0 -256 c0 -270 -2 -281 -45 -281 -26 0 -45 18
-45 43 0 14 -5 17 -22 12 -45 -14 -233 -88 -241 -95 -7 -6 205 -161 290 -213
14 -9 623 220 623 234 0 7 -275 199 -285 199 -3 0 -5 -22 -5 -48 0 -56 -23
-86 -62 -80 l-23 3 -3 273 c-2 208 -5 272 -15 271 -6 -1 -47 -15 -89 -31z"/>
<path d="M9239 3611 c-58 -11 -159 -52 -204 -82 -81 -56 -109 -160 -62 -230
80 -120 334 -182 536 -130 158 39 251 117 251 207 0 132 -154 230 -375 239
-55 2 -121 0 -146 -4z"/>
<path d="M4043 3126 c-151 -35 -243 -101 -263 -191 -24 -108 80 -209 257 -251
95 -22 265 -14 351 16 271 95 266 324 -8 411 -84 27 -250 34 -337 15z"/>
</g>
</svg>
