<?xml version="1.0" standalone="no"?>
<!DOCTYPE svg PUBLIC "-//W3C//DTD SVG 20010904//EN"
 "http://www.w3.org/TR/2001/REC-SVG-20010904/DTD/svg10.dtd">
<svg version="1.0" xmlns="http://www.w3.org/2000/svg"
 width="1254.000000pt" height="1254.000000pt" viewBox="0 0 1254.000000 1254.000000"
 preserveAspectRatio="xMidYMid meet">
<metadata>
Created by potrace 1.16, written by Peter Selinger 2001-2019
</metadata>
<g transform="translate(0.000000,1254.000000) scale(0.100000,-0.100000)"
fill="#000000" stroke="none">
<path d="M8639 11650 c-143 -21 -270 -45 -288 -54 -66 -35 -64 -13 -77 -731
-7 -357 -13 -746 -13 -862 -1 -249 -10 -232 129 -256 115 -20 197 -62 281
-146 207 -207 361 -607 403 -1045 l11 -119 55 -16 c67 -18 131 -78 175 -163
28 -53 41 -65 190 -167 89 -60 167 -117 175 -126 11 -13 12 -100 7 -500 -4
-279 -3 -486 2 -490 5 -3 65 6 133 20 148 30 168 45 168 128 0 70 28 1102 35
1302 11 303 66 2240 67 2375 2 117 -1 141 -19 181 -23 52 3 33 -418 301 -159
102 -368 235 -464 297 l-173 111 -62 -1 c-33 -1 -176 -18 -317 -39z m81 -302
c146 -96 353 -232 460 -303 107 -71 211 -134 232 -141 32 -12 65 -9 293 28
239 38 258 40 273 24 13 -13 14 -20 6 -34 -9 -13 -66 -26 -260 -59 -202 -34
-252 -46 -265 -62 -18 -22 -19 -66 -40 -1676 -6 -462 -13 -846 -15 -854 -3
-11 -10 -8 -29 9 l-25 23 0 336 c0 185 4 602 10 926 18 1142 17 1237 -3 1268
-10 16 -89 74 -175 131 -586 384 -782 517 -782 530 0 17 29 37 45 32 6 -2 129
-82 275 -178z"/>
<path d="M2925 10680 c-66 -11 -208 -33 -315 -50 -107 -17 -209 -35 -227 -41
-42 -14 -89 -68 -104 -121 -14 -51 -9 -207 56 -1698 25 -564 56 -1275 69
-1580 14 -305 28 -563 32 -573 3 -10 106 -102 228 -205 121 -102 329 -279 461
-392 307 -264 339 -288 381 -296 23 -4 106 7 252 36 119 23 254 48 299 57 45
9 87 20 95 24 20 12 13 4074 -7 4105 -8 12 -194 156 -413 320 -621 464 -567
428 -632 431 -30 1 -109 -7 -175 -17z m-339 -257 c578 -424 818 -593 852 -599
25 -5 126 8 319 40 156 27 290 45 298 42 17 -6 20 -52 5 -61 -6 -3 -128 -26
-273 -51 -144 -25 -274 -50 -289 -55 -14 -6 -31 -23 -38 -38 -11 -27 6 -1209
45 -3091 8 -393 15 -729 15 -746 0 -38 -21 -50 -49 -26 -19 16 -20 40 -36 777
-8 418 -22 1071 -30 1450 -8 380 -19 908 -25 1174 -8 405 -12 488 -25 507 -8
13 -41 43 -73 66 -120 89 -742 545 -806 590 -71 51 -84 81 -43 98 12 5 25 9
28 9 4 1 60 -38 125 -86z"/>
<path d="M8175 9728 c-93 -34 -184 -134 -241 -267 -35 -82 -36 -87 -20 -111 8
-14 27 -49 41 -77 13 -29 30 -53 37 -53 7 0 49 6 94 14 44 7 89 9 100 6 67
-25 105 -160 70 -245 -18 -41 -33 -49 -121 -64 -107 -18 -101 -14 -108 -84
-13 -136 -69 -221 -161 -247 l-48 -13 6 -66 c13 -140 39 -283 51 -288 17 -6
1075 173 1086 184 5 5 3 59 -6 131 -52 421 -173 748 -361 981 -130 162 -299
242 -419 199z"/>
<path d="M7485 9373 c-789 -129 -1664 -275 -2095 -349 -1038 -176 -935 -156
-938 -181 -2 -13 5 -35 16 -50 73 -104 153 -343 191 -568 12 -77 20 -101 33
-103 9 -2 407 65 885 148 477 83 947 165 1043 181 96 16 342 59 545 94 204 35
442 76 530 90 88 15 172 31 187 37 108 41 120 364 23 577 -50 107 -109 162
-175 160 -19 -1 -129 -17 -245 -36z"/>
<path d="M8065 9177 c-58 -12 -60 -13 -59 -42 2 -33 23 -158 28 -163 2 -2 39
3 82 12 51 9 83 21 92 33 19 25 10 107 -15 141 -23 31 -46 35 -128 19z"/>
<path d="M4217 9023 c-4 -3 -7 -22 -7 -41 0 -24 15 -57 54 -115 176 -265 297
-702 332 -1194 3 -51 9 -93 13 -93 4 0 22 18 39 39 39 49 40 76 12 298 -59
455 -218 909 -378 1076 -35 36 -52 44 -65 30z"/>
<path d="M4220 7967 c0 -427 4 -757 9 -757 5 0 18 21 29 48 29 68 58 90 138
107 38 8 73 15 78 15 14 0 -1 413 -19 530 -26 166 -62 330 -101 468 -36 127
-107 319 -125 337 -5 5 -9 -285 -9 -748z"/>
<path d="M7755 8574 c-5 -2 -167 -31 -360 -64 -192 -33 -503 -87 -690 -120
-396 -69 -958 -167 -1440 -251 -469 -81 -558 -98 -568 -108 -4 -4 -3 -20 2
-34 12 -32 31 -34 141 -13 41 8 298 54 570 101 272 48 610 107 750 131 140 25
435 76 655 114 220 38 517 90 660 115 143 25 263 45 267 45 15 0 38 33 38 55
0 25 -8 35 -25 29z"/>
<path d="M8880 8334 c-107 -19 -503 -86 -880 -149 -377 -64 -786 -134 -910
-156 -124 -22 -364 -64 -535 -95 -170 -30 -434 -77 -585 -104 -338 -61 -1054
-188 -1135 -201 -88 -15 -93 -24 -41 -70 52 -46 112 -163 151 -294 48 -161 46
-454 -3 -537 -12 -20 -13 -31 -5 -39 7 -7 128 12 419 66 775 145 1200 224
1424 265 257 47 549 101 895 165 283 52 624 115 820 150 77 14 160 30 185 35
25 5 158 30 295 55 138 25 267 50 287 55 46 13 63 36 91 125 76 244 -45 683
-208 751 -43 18 -32 19 -265 -22z"/>
<path d="M9500 7899 c-57 -11 -72 -31 -65 -84 8 -49 -8 -181 -31 -255 -20 -68
-81 -133 -139 -149 -22 -6 -172 -36 -335 -66 -410 -78 -401 -76 -398 -86 3 -8
604 -441 639 -459 14 -8 17 17 23 247 4 168 10 261 18 270 6 8 21 13 32 11 21
-3 21 -7 24 -298 2 -227 -1 -299 -10 -312 -8 -9 -56 -23 -123 -36 -106 -20
-1724 -338 -2450 -482 -192 -38 -604 -119 -915 -180 -311 -61 -647 -127 -747
-147 -100 -20 -188 -33 -196 -30 -22 8 -27 131 -27 687 -1 278 -3 515 -6 527
-9 32 -27 35 -133 17 -69 -12 -101 -22 -114 -37 -16 -18 -17 -61 -11 -721 4
-385 10 -705 14 -709 9 -10 77 3 1505 288 616 123 1658 330 2315 461 657 130
1200 242 1206 248 18 17 40 1271 24 1291 -14 16 -33 17 -100 4z"/>
<path d="M4656 7511 c-22 -24 -46 -103 -46 -152 0 -37 39 -109 75 -139 8 -7
15 -19 15 -26 0 -14 21 -21 74 -26 57 -6 65 -32 72 -242 7 -183 8 -189 25
-168 64 80 47 398 -33 592 -65 156 -132 216 -182 161z"/>
<path d="M4462 7315 c-41 -7 -76 -16 -79 -18 -2 -3 15 -22 38 -43 24 -22 61
-56 83 -76 37 -34 43 -37 85 -31 59 8 91 20 91 34 0 12 -129 150 -139 148 -3
0 -39 -7 -79 -14z"/>
<path d="M7890 7150 c-283 -53 -702 -132 -930 -174 -685 -128 -1633 -304
-1833 -342 -103 -20 -202 -35 -220 -34 -18 1 -38 2 -45 1 -12 -1 -13 -59 -7
-333 4 -183 10 -336 14 -339 6 -6 68 5 1216 232 363 72 818 161 1010 199 1208
238 1982 392 1998 396 9 3 17 9 17 13 0 4 -44 39 -97 76 -54 38 -204 144 -334
237 -130 92 -245 168 -255 167 -11 -1 -251 -45 -534 -99z"/>
<path d="M4285 7209 c-4 -17 -20 -45 -35 -63 l-28 -32 5 -637 6 -637 114 -100
c62 -55 118 -100 123 -100 6 0 8 260 4 728 l-6 727 -78 73 c-43 39 -83 72 -88
72 -6 0 -13 -14 -17 -31z"/>
<path d="M10015 7021 c-24 -47 -50 -59 -196 -89 l-134 -29 -10 -171 c-6 -95
-15 -176 -21 -182 -6 -6 -260 -60 -565 -121 -1631 -323 -4199 -835 -4368 -870
-108 -22 -203 -37 -215 -33 -12 4 -86 63 -165 131 -113 98 -148 123 -165 119
-125 -31 -594 -116 -641 -116 -96 1 -25 -53 -764 578 -330 282 -357 307 -369
348 -7 24 -18 44 -25 44 -45 0 -451 -85 -485 -102 -54 -26 -97 -83 -111 -149
-11 -50 -10 -85 19 -1024 26 -839 51 -1662 60 -1997 7 -264 13 -375 22 -392 7
-14 153 -188 323 -387 350 -409 472 -553 904 -1064 409 -483 432 -509 488
-535 98 -46 58 -53 1323 240 140 32 444 102 675 155 734 168 1845 424 1975
455 69 16 177 41 240 55 63 14 448 103 855 196 407 94 913 210 1125 259 212
48 509 116 660 150 151 33 290 69 309 78 70 35 75 51 83 270 4 108 12 562 18
1007 6 446 15 1004 21 1240 6 237 11 626 12 865 l2 435 -29 53 c-19 33 -48 66
-80 89 -193 139 -730 515 -741 519 -8 4 -20 -7 -30 -25z m-7735 -896 c520
-488 896 -838 1058 -986 171 -156 204 -179 269 -179 20 0 1087 219 1533 315
155 34 1020 215 1580 331 250 52 574 120 720 150 460 96 822 170 1625 334 429
88 899 185 1045 215 681 141 621 130 636 110 21 -28 17 -54 -8 -65 -13 -5
-138 -32 -278 -60 -367 -74 -1367 -277 -1770 -360 -190 -39 -442 -91 -560
-115 -341 -70 -1009 -209 -1450 -301 -456 -96 -875 -183 -1475 -309 -225 -47
-545 -114 -710 -150 -165 -35 -424 -89 -575 -120 -151 -31 -289 -63 -307 -70
-24 -11 -35 -24 -44 -54 -12 -40 -2 -1289 21 -2681 5 -305 10 -655 10 -777 0
-238 -2 -249 -47 -200 -21 22 -21 31 -38 1377 -27 2246 -29 2321 -45 2352 -8
14 -94 100 -191 190 -96 90 -254 237 -351 328 -96 91 -346 324 -554 519 -506
473 -478 444 -469 470 4 12 16 26 28 30 25 10 4 28 347 -294z m5824 -1174 c16
-17 21 -34 21 -77 0 -51 -3 -58 -37 -90 -58 -53 -131 -46 -163 16 -30 59 -9
135 47 167 33 19 105 10 132 -16z m6 -290 c6 -13 10 -197 10 -530 l0 -510 -22
-24 c-18 -20 -46 -29 -133 -47 -60 -12 -202 -42 -315 -66 -113 -25 -297 -65
-410 -89 -844 -183 -817 -178 -838 -152 -12 14 -19 1041 -8 1069 4 9 19 21 34
27 28 11 331 76 1092 235 594 123 572 120 590 87z m-1569 -40 c56 -56 27 -159
-53 -189 -45 -17 -81 -10 -114 23 -19 19 -24 34 -24 76 0 45 4 55 34 85 29 29
41 34 81 34 38 0 52 -5 76 -29z m1544 -1155 c89 -38 89 -168 -1 -211 -41 -19
-69 -19 -104 2 -76 45 -62 165 24 204 49 22 40 22 81 5z m-1540 -367 c69 -67
10 -199 -90 -199 -34 0 -82 25 -95 49 -19 37 -12 102 15 137 45 59 117 64 170
13z"/>
<path d="M7625 4510 c-203 -44 -514 -109 -690 -146 -176 -36 -351 -74 -390
-83 l-70 -17 -3 -467 c-2 -440 -1 -467 15 -467 10 0 227 45 483 101 256 55
593 127 750 161 157 33 291 65 298 70 9 8 12 109 10 467 -3 396 -5 456 -18
458 -8 1 -181 -34 -385 -77z"/>
</g>
</svg>
